<svg width="252" height="69" viewBox="0 0 252 69" fill="none" xmlns="http://www.w3.org/2000/svg">
<path d="M1.056 34.236C1.056 32.0173 1.536 30.044 2.496 28.316C3.456 26.5667 4.78933 25.212 6.496 24.252C8.224 23.2707 10.176 22.78 12.352 22.78C15.0187 22.78 17.3013 23.484 19.2 24.892C21.0987 26.3 22.368 28.22 23.008 30.652H16.992C16.544 29.7133 15.904 28.9987 15.072 28.508C14.2613 28.0173 13.3333 27.772 12.288 27.772C10.6027 27.772 9.23733 28.3587 8.192 29.532C7.14667 30.7053 6.624 32.2733 6.624 34.236C6.624 36.1987 7.14667 37.7667 8.192 38.94C9.23733 40.1133 10.6027 40.7 12.288 40.7C13.3333 40.7 14.2613 40.4547 15.072 39.964C15.904 39.4733 16.544 38.7587 16.992 37.82H23.008C22.368 40.252 21.0987 42.172 19.2 43.58C17.3013 44.9667 15.0187 45.66 12.352 45.66C10.176 45.66 8.224 45.18 6.496 44.22C4.78933 43.2387 3.456 41.884 2.496 40.156C1.536 38.428 1.056 36.4547 1.056 34.236ZM34.487 45.756C32.7377 45.756 31.159 45.3827 29.751 44.636C28.3643 43.8893 27.2657 42.8227 26.455 41.436C25.6657 40.0493 25.271 38.428 25.271 36.572C25.271 34.7373 25.6763 33.1267 26.487 31.74C27.2977 30.332 28.407 29.2547 29.815 28.508C31.223 27.7613 32.8017 27.388 34.551 27.388C36.3003 27.388 37.879 27.7613 39.287 28.508C40.695 29.2547 41.8043 30.332 42.615 31.74C43.4257 33.1267 43.831 34.7373 43.831 36.572C43.831 38.4067 43.415 40.028 42.583 41.436C41.7723 42.8227 40.6523 43.8893 39.223 44.636C37.815 45.3827 36.2363 45.756 34.487 45.756ZM34.487 41.02C35.5323 41.02 36.4177 40.636 37.143 39.868C37.8897 39.1 38.263 38.0013 38.263 36.572C38.263 35.1427 37.9003 34.044 37.175 33.276C36.471 32.508 35.5963 32.124 34.551 32.124C33.4843 32.124 32.599 32.508 31.895 33.276C31.191 34.0227 30.839 35.1213 30.839 36.572C30.839 38.0013 31.1803 39.1 31.863 39.868C32.567 40.636 33.4417 41.02 34.487 41.02ZM54.862 45.756C53.1127 45.756 51.534 45.3827 50.126 44.636C48.7393 43.8893 47.6407 42.8227 46.83 41.436C46.0407 40.0493 45.646 38.428 45.646 36.572C45.646 34.7373 46.0513 33.1267 46.862 31.74C47.6727 30.332 48.782 29.2547 50.19 28.508C51.598 27.7613 53.1767 27.388 54.926 27.388C56.6753 27.388 58.254 27.7613 59.662 28.508C61.07 29.2547 62.1793 30.332 62.99 31.74C63.8007 33.1267 64.206 34.7373 64.206 36.572C64.206 38.4067 63.79 40.028 62.958 41.436C62.1473 42.8227 61.0273 43.8893 59.598 44.636C58.19 45.3827 56.6113 45.756 54.862 45.756ZM54.862 41.02C55.9073 41.02 56.7927 40.636 57.518 39.868C58.2647 39.1 58.638 38.0013 58.638 36.572C58.638 35.1427 58.2753 34.044 57.55 33.276C56.846 32.508 55.9713 32.124 54.926 32.124C53.8593 32.124 52.974 32.508 52.27 33.276C51.566 34.0227 51.214 35.1213 51.214 36.572C51.214 38.0013 51.5553 39.1 52.238 39.868C52.942 40.636 53.8167 41.02 54.862 41.02ZM66.021 36.54C66.021 34.7053 66.3623 33.0947 67.045 31.708C67.749 30.3213 68.6983 29.2547 69.893 28.508C71.0877 27.7613 72.421 27.388 73.893 27.388C75.0663 27.388 76.133 27.6333 77.093 28.124C78.0743 28.6147 78.8423 29.276 79.397 30.108V21.82H84.869V45.5H79.397V42.94C78.885 43.7933 78.149 44.476 77.189 44.988C76.2503 45.5 75.1517 45.756 73.893 45.756C72.421 45.756 71.0877 45.3827 69.893 44.636C68.6983 43.868 67.749 42.7907 67.045 41.404C66.3623 39.996 66.021 38.3747 66.021 36.54ZM79.397 36.572C79.397 35.2067 79.013 34.1293 78.245 33.34C77.4983 32.5507 76.581 32.156 75.493 32.156C74.405 32.156 73.477 32.5507 72.709 33.34C71.9623 34.108 71.589 35.1747 71.589 36.54C71.589 37.9053 71.9623 38.9933 72.709 39.804C73.477 40.5933 74.405 40.988 75.493 40.988C76.581 40.988 77.4983 40.5933 78.245 39.804C79.013 39.0147 79.397 37.9373 79.397 36.572ZM91.5798 25.788C90.6198 25.788 89.8304 25.5107 89.2118 24.956C88.6144 24.38 88.3158 23.676 88.3158 22.844C88.3158 21.9907 88.6144 21.2867 89.2118 20.732C89.8304 20.156 90.6198 19.868 91.5798 19.868C92.5184 19.868 93.2864 20.156 93.8838 20.732C94.5024 21.2867 94.8118 21.9907 94.8118 22.844C94.8118 23.676 94.5024 24.38 93.8838 24.956C93.2864 25.5107 92.5184 25.788 91.5798 25.788ZM94.2998 27.644V45.5H88.8278V27.644H94.2998ZM97.1773 36.54C97.1773 34.7053 97.5186 33.0947 98.2013 31.708C98.9053 30.3213 99.8546 29.2547 101.049 28.508C102.244 27.7613 103.577 27.388 105.049 27.388C106.223 27.388 107.289 27.6333 108.249 28.124C109.231 28.6147 109.999 29.276 110.553 30.108V21.82H116.025V45.5H110.553V42.94C110.041 43.7933 109.305 44.476 108.345 44.988C107.407 45.5 106.308 45.756 105.049 45.756C103.577 45.756 102.244 45.3827 101.049 44.636C99.8546 43.868 98.9053 42.7907 98.2013 41.404C97.5186 39.996 97.1773 38.3747 97.1773 36.54ZM110.553 36.572C110.553 35.2067 110.169 34.1293 109.401 33.34C108.655 32.5507 107.737 32.156 106.649 32.156C105.561 32.156 104.633 32.5507 103.865 33.34C103.119 34.108 102.745 35.1747 102.745 36.54C102.745 37.9053 103.119 38.9933 103.865 39.804C104.633 40.5933 105.561 40.988 106.649 40.988C107.737 40.988 108.655 40.5933 109.401 39.804C110.169 39.0147 110.553 37.9373 110.553 36.572ZM118.896 36.54C118.896 34.7053 119.237 33.0947 119.92 31.708C120.624 30.3213 121.573 29.2547 122.768 28.508C123.963 27.7613 125.296 27.388 126.768 27.388C127.941 27.388 129.008 27.6333 129.968 28.124C130.949 28.6147 131.717 29.276 132.272 30.108V21.82H137.744V45.5H132.272V42.94C131.76 43.7933 131.024 44.476 130.064 44.988C129.125 45.5 128.027 45.756 126.768 45.756C125.296 45.756 123.963 45.3827 122.768 44.636C121.573 43.868 120.624 42.7907 119.92 41.404C119.237 39.996 118.896 38.3747 118.896 36.54ZM132.272 36.572C132.272 35.2067 131.888 34.1293 131.12 33.34C130.373 32.5507 129.456 32.156 128.368 32.156C127.28 32.156 126.352 32.5507 125.584 33.34C124.837 34.108 124.464 35.1747 124.464 36.54C124.464 37.9053 124.837 38.9933 125.584 39.804C126.352 40.5933 127.28 40.988 128.368 40.988C129.456 40.988 130.373 40.5933 131.12 39.804C131.888 39.0147 132.272 37.9373 132.272 36.572ZM159.943 27.644L148.743 53.98H142.855L146.951 44.892L139.687 27.644H145.799L149.927 38.812L154.023 27.644H159.943Z" fill="black"/>
<mask id="path-2-outside-1_1016_3049" maskUnits="userSpaceOnUse" x="159" y="40" width="93" height="21" fill="black">
<rect fill="white" x="159" y="40" width="93" height="21"/>
<path d="M178.304 42.152L172.328 59H167.192L161.216 42.152H165.584L169.76 54.872L173.96 42.152H178.304ZM192.643 52.088C192.643 52.472 192.619 52.872 192.571 53.288H183.283C183.347 54.12 183.611 54.76 184.075 55.208C184.555 55.64 185.139 55.856 185.827 55.856C186.851 55.856 187.563 55.424 187.963 54.56H192.331C192.107 55.44 191.699 56.232 191.107 56.936C190.531 57.64 189.803 58.192 188.923 58.592C188.043 58.992 187.059 59.192 185.971 59.192C184.659 59.192 183.491 58.912 182.467 58.352C181.443 57.792 180.643 56.992 180.067 55.952C179.491 54.912 179.203 53.696 179.203 52.304C179.203 50.912 179.483 49.696 180.043 48.656C180.619 47.616 181.419 46.816 182.443 46.256C183.467 45.696 184.643 45.416 185.971 45.416C187.267 45.416 188.419 45.688 189.427 46.232C190.435 46.776 191.219 47.552 191.779 48.56C192.355 49.568 192.643 50.744 192.643 52.088ZM188.443 51.008C188.443 50.304 188.203 49.744 187.723 49.328C187.243 48.912 186.643 48.704 185.923 48.704C185.235 48.704 184.651 48.904 184.171 49.304C183.707 49.704 183.419 50.272 183.307 51.008H188.443ZM202.968 45.464C204.536 45.464 205.784 45.976 206.712 47C207.656 48.008 208.128 49.4 208.128 51.176V59H204.048V51.728C204.048 50.832 203.816 50.136 203.352 49.64C202.888 49.144 202.264 48.896 201.48 48.896C200.696 48.896 200.072 49.144 199.608 49.64C199.144 50.136 198.912 50.832 198.912 51.728V59H194.808V45.608H198.912V47.384C199.328 46.792 199.888 46.328 200.592 45.992C201.296 45.64 202.088 45.464 202.968 45.464ZM210.164 52.28C210.164 50.904 210.42 49.696 210.932 48.656C211.46 47.616 212.172 46.816 213.068 46.256C213.964 45.696 214.964 45.416 216.068 45.416C216.948 45.416 217.748 45.6 218.468 45.968C219.204 46.336 219.78 46.832 220.196 47.456V41.24H224.3V59H220.196V57.08C219.812 57.72 219.26 58.232 218.54 58.616C217.836 59 217.012 59.192 216.068 59.192C214.964 59.192 213.964 58.912 213.068 58.352C212.172 57.776 211.46 56.968 210.932 55.928C210.42 54.872 210.164 53.656 210.164 52.28ZM220.196 52.304C220.196 51.28 219.908 50.472 219.332 49.88C218.772 49.288 218.084 48.992 217.268 48.992C216.452 48.992 215.756 49.288 215.18 49.88C214.62 50.456 214.34 51.256 214.34 52.28C214.34 53.304 214.62 54.12 215.18 54.728C215.756 55.32 216.452 55.616 217.268 55.616C218.084 55.616 218.772 55.32 219.332 54.728C219.908 54.136 220.196 53.328 220.196 52.304ZM233.365 59.192C232.053 59.192 230.869 58.912 229.813 58.352C228.773 57.792 227.949 56.992 227.341 55.952C226.749 54.912 226.453 53.696 226.453 52.304C226.453 50.928 226.757 49.72 227.365 48.68C227.973 47.624 228.805 46.816 229.861 46.256C230.917 45.696 232.101 45.416 233.413 45.416C234.725 45.416 235.909 45.696 236.965 46.256C238.021 46.816 238.853 47.624 239.461 48.68C240.069 49.72 240.373 50.928 240.373 52.304C240.373 53.68 240.061 54.896 239.437 55.952C238.829 56.992 237.989 57.792 236.917 58.352C235.861 58.912 234.677 59.192 233.365 59.192ZM233.365 55.64C234.149 55.64 234.813 55.352 235.357 54.776C235.917 54.2 236.197 53.376 236.197 52.304C236.197 51.232 235.925 50.408 235.381 49.832C234.853 49.256 234.197 48.968 233.413 48.968C232.613 48.968 231.949 49.256 231.421 49.832C230.893 50.392 230.629 51.216 230.629 52.304C230.629 53.376 230.885 54.2 231.397 54.776C231.925 55.352 232.581 55.64 233.365 55.64ZM246.655 47.84C247.135 47.104 247.735 46.528 248.455 46.112C249.175 45.68 249.975 45.464 250.855 45.464V49.808H249.727C248.703 49.808 247.935 50.032 247.423 50.48C246.911 50.912 246.655 51.68 246.655 52.784V59H242.551V45.608H246.655V47.84Z"/>
</mask>
<path d="M178.304 42.152L172.328 59H167.192L161.216 42.152H165.584L169.76 54.872L173.96 42.152H178.304ZM192.643 52.088C192.643 52.472 192.619 52.872 192.571 53.288H183.283C183.347 54.12 183.611 54.76 184.075 55.208C184.555 55.64 185.139 55.856 185.827 55.856C186.851 55.856 187.563 55.424 187.963 54.56H192.331C192.107 55.44 191.699 56.232 191.107 56.936C190.531 57.64 189.803 58.192 188.923 58.592C188.043 58.992 187.059 59.192 185.971 59.192C184.659 59.192 183.491 58.912 182.467 58.352C181.443 57.792 180.643 56.992 180.067 55.952C179.491 54.912 179.203 53.696 179.203 52.304C179.203 50.912 179.483 49.696 180.043 48.656C180.619 47.616 181.419 46.816 182.443 46.256C183.467 45.696 184.643 45.416 185.971 45.416C187.267 45.416 188.419 45.688 189.427 46.232C190.435 46.776 191.219 47.552 191.779 48.56C192.355 49.568 192.643 50.744 192.643 52.088ZM188.443 51.008C188.443 50.304 188.203 49.744 187.723 49.328C187.243 48.912 186.643 48.704 185.923 48.704C185.235 48.704 184.651 48.904 184.171 49.304C183.707 49.704 183.419 50.272 183.307 51.008H188.443ZM202.968 45.464C204.536 45.464 205.784 45.976 206.712 47C207.656 48.008 208.128 49.4 208.128 51.176V59H204.048V51.728C204.048 50.832 203.816 50.136 203.352 49.64C202.888 49.144 202.264 48.896 201.48 48.896C200.696 48.896 200.072 49.144 199.608 49.64C199.144 50.136 198.912 50.832 198.912 51.728V59H194.808V45.608H198.912V47.384C199.328 46.792 199.888 46.328 200.592 45.992C201.296 45.64 202.088 45.464 202.968 45.464ZM210.164 52.28C210.164 50.904 210.42 49.696 210.932 48.656C211.46 47.616 212.172 46.816 213.068 46.256C213.964 45.696 214.964 45.416 216.068 45.416C216.948 45.416 217.748 45.6 218.468 45.968C219.204 46.336 219.78 46.832 220.196 47.456V41.24H224.3V59H220.196V57.08C219.812 57.72 219.26 58.232 218.54 58.616C217.836 59 217.012 59.192 216.068 59.192C214.964 59.192 213.964 58.912 213.068 58.352C212.172 57.776 211.46 56.968 210.932 55.928C210.42 54.872 210.164 53.656 210.164 52.28ZM220.196 52.304C220.196 51.28 219.908 50.472 219.332 49.88C218.772 49.288 218.084 48.992 217.268 48.992C216.452 48.992 215.756 49.288 215.18 49.88C214.62 50.456 214.34 51.256 214.34 52.28C214.34 53.304 214.62 54.12 215.18 54.728C215.756 55.32 216.452 55.616 217.268 55.616C218.084 55.616 218.772 55.32 219.332 54.728C219.908 54.136 220.196 53.328 220.196 52.304ZM233.365 59.192C232.053 59.192 230.869 58.912 229.813 58.352C228.773 57.792 227.949 56.992 227.341 55.952C226.749 54.912 226.453 53.696 226.453 52.304C226.453 50.928 226.757 49.72 227.365 48.68C227.973 47.624 228.805 46.816 229.861 46.256C230.917 45.696 232.101 45.416 233.413 45.416C234.725 45.416 235.909 45.696 236.965 46.256C238.021 46.816 238.853 47.624 239.461 48.68C240.069 49.72 240.373 50.928 240.373 52.304C240.373 53.68 240.061 54.896 239.437 55.952C238.829 56.992 237.989 57.792 236.917 58.352C235.861 58.912 234.677 59.192 233.365 59.192ZM233.365 55.64C234.149 55.64 234.813 55.352 235.357 54.776C235.917 54.2 236.197 53.376 236.197 52.304C236.197 51.232 235.925 50.408 235.381 49.832C234.853 49.256 234.197 48.968 233.413 48.968C232.613 48.968 231.949 49.256 231.421 49.832C230.893 50.392 230.629 51.216 230.629 52.304C230.629 53.376 230.885 54.2 231.397 54.776C231.925 55.352 232.581 55.64 233.365 55.64ZM246.655 47.84C247.135 47.104 247.735 46.528 248.455 46.112C249.175 45.68 249.975 45.464 250.855 45.464V49.808H249.727C248.703 49.808 247.935 50.032 247.423 50.48C246.911 50.912 246.655 51.68 246.655 52.784V59H242.551V45.608H246.655V47.84Z" fill="#5F5050"/>
<path d="M178.304 42.152L179.246 42.4863L179.72 41.152H178.304V42.152ZM172.328 59V60H173.034L173.27 59.3343L172.328 59ZM167.192 59L166.25 59.3343L166.486 60H167.192V59ZM161.216 42.152V41.152H159.8L160.274 42.4863L161.216 42.152ZM165.584 42.152L166.534 41.8401L166.308 41.152H165.584V42.152ZM169.76 54.872L168.81 55.1839L169.757 58.0696L170.71 55.1855L169.76 54.872ZM173.96 42.152V41.152H173.237L173.01 41.8385L173.96 42.152ZM177.362 41.8177L171.386 58.6657L173.27 59.3343L179.246 42.4863L177.362 41.8177ZM172.328 58H167.192V60H172.328V58ZM168.134 58.6657L162.158 41.8177L160.274 42.4863L166.25 59.3343L168.134 58.6657ZM161.216 43.152H165.584V41.152H161.216V43.152ZM164.634 42.4639L168.81 55.1839L170.71 54.5601L166.534 41.8401L164.634 42.4639ZM170.71 55.1855L174.91 42.4655L173.01 41.8385L168.81 54.5585L170.71 55.1855ZM173.96 43.152H178.304V41.152H173.96V43.152ZM192.571 53.288V54.288H193.463L193.565 53.4026L192.571 53.288ZM183.283 53.288V52.288H182.203L182.286 53.3647L183.283 53.288ZM184.075 55.208L183.381 55.9274L183.393 55.9396L183.406 55.9513L184.075 55.208ZM187.963 54.56V53.56H187.324L187.056 54.1399L187.963 54.56ZM192.331 54.56L193.3 54.8067L193.618 53.56H192.331V54.56ZM191.107 56.936L190.342 56.2923L190.333 56.3028L191.107 56.936ZM188.923 58.592L189.337 59.5024L188.923 58.592ZM182.467 58.352L181.987 59.2294L182.467 58.352ZM180.067 55.952L180.942 55.4675L180.067 55.952ZM180.043 48.656L179.168 48.1715L179.163 48.1819L180.043 48.656ZM182.443 46.256L182.923 47.1334L182.443 46.256ZM189.427 46.232L188.952 47.112V47.112L189.427 46.232ZM191.779 48.56L190.905 49.0457L190.911 49.0561L191.779 48.56ZM188.443 51.008V52.008H189.443V51.008H188.443ZM187.723 49.328L188.378 48.5723L187.723 49.328ZM184.171 49.304L183.531 48.5358L183.525 48.5411L183.518 48.5466L184.171 49.304ZM183.307 51.008L182.319 50.8576L182.144 52.008H183.307V51.008ZM191.643 52.088C191.643 52.4304 191.622 52.7921 191.578 53.1734L193.565 53.4026C193.617 52.9519 193.643 52.5136 193.643 52.088H191.643ZM192.571 52.288H183.283V54.288H192.571V52.288ZM182.286 53.3647C182.363 54.3672 182.694 55.2643 183.381 55.9274L184.77 54.4886C184.529 54.2557 184.331 53.8728 184.28 53.2113L182.286 53.3647ZM183.406 55.9513C184.083 56.56 184.91 56.856 185.827 56.856V54.856C185.369 54.856 185.028 54.72 184.744 54.4647L183.406 55.9513ZM185.827 56.856C186.48 56.856 187.103 56.7174 187.648 56.3869C188.197 56.0536 188.6 55.5658 188.871 54.9801L187.056 54.1399C186.927 54.4182 186.773 54.5784 186.611 54.6771C186.443 54.7786 186.198 54.856 185.827 54.856V56.856ZM187.963 55.56H192.331V53.56H187.963V55.56ZM191.362 54.3133C191.176 55.0454 190.838 55.7021 190.342 56.2924L191.873 57.5796C192.56 56.7619 193.039 55.8346 193.3 54.8067L191.362 54.3133ZM190.333 56.3028C189.861 56.8806 189.259 57.3411 188.509 57.6816L189.337 59.5024C190.348 59.0429 191.202 58.3994 191.881 57.5692L190.333 56.3028ZM188.509 57.6816C187.775 58.0156 186.934 58.192 185.971 58.192V60.192C187.184 60.192 188.312 59.9684 189.337 59.5024L188.509 57.6816ZM185.971 58.192C184.806 58.192 183.806 57.9446 182.947 57.4746L181.987 59.2294C183.176 59.8794 184.513 60.192 185.971 60.192V58.192ZM182.947 57.4746C182.093 57.0073 181.428 56.345 180.942 55.4675L179.192 56.4365C179.858 57.639 180.794 58.5767 181.987 59.2294L182.947 57.4746ZM180.942 55.4675C180.461 54.5993 180.203 53.5556 180.203 52.304H178.203C178.203 53.8364 178.521 55.2247 179.192 56.4365L180.942 55.4675ZM180.203 52.304C180.203 51.0479 180.455 50.0004 180.924 49.1301L179.163 48.1819C178.511 49.3916 178.203 50.7761 178.203 52.304H180.203ZM180.918 49.1405C181.404 48.263 182.069 47.6007 182.923 47.1334L181.963 45.3786C180.77 46.0313 179.834 46.969 179.168 48.1715L180.918 49.1405ZM182.923 47.1334C183.781 46.6644 184.788 46.416 185.971 46.416V44.416C184.499 44.416 183.154 44.7276 181.963 45.3786L182.923 47.1334ZM185.971 46.416C187.124 46.416 188.109 46.6566 188.952 47.112L189.902 45.352C188.73 44.7194 187.411 44.416 185.971 44.416V46.416ZM188.952 47.112C189.791 47.5647 190.437 48.2033 190.905 49.0456L192.653 48.0744C192.001 46.9007 191.079 45.9873 189.902 45.352L188.952 47.112ZM190.911 49.0561C191.388 49.8907 191.643 50.8903 191.643 52.088H193.643C193.643 50.5977 193.323 49.2453 192.647 48.0639L190.911 49.0561ZM189.443 51.008C189.443 50.0493 189.103 49.2002 188.378 48.5723L187.068 50.0837C187.304 50.2878 187.443 50.5587 187.443 51.008H189.443ZM188.378 48.5723C187.692 47.9777 186.85 47.704 185.923 47.704V49.704C186.437 49.704 186.794 49.8463 187.068 50.0837L188.378 48.5723ZM185.923 47.704C185.027 47.704 184.209 47.9706 183.531 48.5358L184.811 50.0722C185.093 49.8374 185.444 49.704 185.923 49.704V47.704ZM183.518 48.5466C182.837 49.1341 182.458 49.9386 182.319 50.8576L184.296 51.1584C184.38 50.6054 184.578 50.2739 184.824 50.0614L183.518 48.5466ZM183.307 52.008H188.443V50.008H183.307V52.008ZM206.712 47L205.971 47.6715L205.977 47.6776L205.982 47.6836L206.712 47ZM208.128 59V60H209.128V59H208.128ZM204.048 59H203.048V60H204.048V59ZM203.352 49.64L202.622 50.3232L203.352 49.64ZM199.608 49.64L200.339 50.3232L199.608 49.64ZM198.912 59V60H199.912V59H198.912ZM194.808 59H193.808V60H194.808V59ZM194.808 45.608V44.608H193.808V45.608H194.808ZM198.912 45.608H199.912V44.608H198.912V45.608ZM198.912 47.384H197.912V50.5464L199.731 47.9589L198.912 47.384ZM200.592 45.992L201.023 46.8945L201.031 46.8905L201.04 46.8864L200.592 45.992ZM202.968 46.464C204.296 46.464 205.259 46.8859 205.971 47.6715L207.453 46.3285C206.309 45.0661 204.777 44.464 202.968 44.464V46.464ZM205.982 47.6836C206.708 48.4578 207.128 49.5787 207.128 51.176H209.128C209.128 49.2213 208.605 47.5582 207.442 46.3164L205.982 47.6836ZM207.128 51.176V59H209.128V51.176H207.128ZM208.128 58H204.048V60H208.128V58ZM205.048 59V51.728H203.048V59H205.048ZM205.048 51.728C205.048 50.6614 204.769 49.691 204.083 48.9568L202.622 50.3232C202.863 50.581 203.048 51.0026 203.048 51.728H205.048ZM204.083 48.9568C203.4 48.2269 202.494 47.896 201.48 47.896V49.896C202.034 49.896 202.377 50.0611 202.622 50.3232L204.083 48.9568ZM201.48 47.896C200.466 47.896 199.561 48.2269 198.878 48.9568L200.339 50.3232C200.584 50.0611 200.926 49.896 201.48 49.896V47.896ZM198.878 48.9568C198.191 49.691 197.912 50.6614 197.912 51.728H199.912C199.912 51.0026 200.097 50.581 200.339 50.3232L198.878 48.9568ZM197.912 51.728V59H199.912V51.728H197.912ZM198.912 58H194.808V60H198.912V58ZM195.808 59V45.608H193.808V59H195.808ZM194.808 46.608H198.912V44.608H194.808V46.608ZM197.912 45.608V47.384H199.912V45.608H197.912ZM199.731 47.9589C200.04 47.5185 200.462 47.1624 201.023 46.8945L200.162 45.0895C199.315 45.4936 198.617 46.0655 198.094 46.8091L199.731 47.9589ZM201.04 46.8864C201.589 46.6117 202.225 46.464 202.968 46.464V44.464C201.952 44.464 201.004 44.6683 200.145 45.0976L201.04 46.8864ZM210.932 48.656L210.04 48.2033L210.035 48.2143L210.932 48.656ZM213.068 46.256L213.598 47.104L213.068 46.256ZM218.468 45.968L218.013 46.8585L218.021 46.8624L218.468 45.968ZM220.196 47.456L219.364 48.0107L221.196 50.7588V47.456H220.196ZM220.196 41.24V40.24H219.196V41.24H220.196ZM224.3 41.24H225.3V40.24H224.3V41.24ZM224.3 59V60H225.3V59H224.3ZM220.196 59H219.196V60H220.196V59ZM220.196 57.08H221.196V53.4697L219.339 56.5655L220.196 57.08ZM218.54 58.616L218.07 57.7336L218.061 57.7381L218.54 58.616ZM213.068 58.352L212.527 59.1932L212.538 59.2L213.068 58.352ZM210.932 55.928L210.032 56.3643L210.036 56.3725L210.041 56.3807L210.932 55.928ZM219.332 49.88L218.606 50.5673L218.615 50.5774L219.332 49.88ZM215.18 49.88L214.463 49.1826L214.463 49.1829L215.18 49.88ZM215.18 54.728L214.445 55.4055L214.454 55.4155L214.463 55.4254L215.18 54.728ZM219.332 54.728L218.615 54.0306L218.606 54.0408L219.332 54.728ZM211.164 52.28C211.164 51.0287 211.397 49.9769 211.829 49.0977L210.035 48.2143C209.444 49.4151 209.164 50.7793 209.164 52.28H211.164ZM211.824 49.1087C212.278 48.2135 212.872 47.5578 213.598 47.104L212.538 45.408C211.472 46.0742 210.642 47.0185 210.041 48.2033L211.824 49.1087ZM213.598 47.104C214.328 46.6479 215.143 46.416 216.068 46.416V44.416C214.786 44.416 213.6 44.7441 212.538 45.408L213.598 47.104ZM216.068 46.416C216.804 46.416 217.446 46.5687 218.013 46.8584L218.923 45.0776C218.05 44.6313 217.092 44.416 216.068 44.416V46.416ZM218.021 46.8624C218.617 47.1604 219.054 47.5453 219.364 48.0107L221.028 46.9013C220.507 46.1187 219.792 45.5116 218.915 45.0736L218.021 46.8624ZM221.196 47.456V41.24H219.196V47.456H221.196ZM220.196 42.24H224.3V40.24H220.196V42.24ZM223.3 41.24V59H225.3V41.24H223.3ZM224.3 58H220.196V60H224.3V58ZM221.196 59V57.08H219.196V59H221.196ZM219.339 56.5655C219.057 57.0358 218.645 57.4267 218.07 57.7336L219.011 59.4984C219.875 59.0373 220.568 58.4042 221.054 57.5945L219.339 56.5655ZM218.061 57.7381C217.528 58.0289 216.875 58.192 216.068 58.192V60.192C217.15 60.192 218.144 59.9711 219.019 59.4939L218.061 57.7381ZM216.068 58.192C215.143 58.192 214.328 57.9601 213.598 57.504L212.538 59.2C213.6 59.8639 214.786 60.192 216.068 60.192V58.192ZM213.609 57.5108C212.876 57.0398 212.279 56.3724 211.824 55.4753L210.041 56.3807C210.641 57.5636 211.468 58.5122 212.527 59.1932L213.609 57.5108ZM211.832 55.4917C211.396 54.5933 211.164 53.5308 211.164 52.28H209.164C209.164 53.7812 209.444 55.1507 210.032 56.3643L211.832 55.4917ZM221.196 52.304C221.196 51.0854 220.848 50.0037 220.049 49.1826L218.615 50.5774C218.969 50.9403 219.196 51.4746 219.196 52.304H221.196ZM220.059 49.1928C219.309 48.4008 218.359 47.992 217.268 47.992V49.992C217.81 49.992 218.235 50.1752 218.606 50.5672L220.059 49.1928ZM217.268 47.992C216.179 47.992 215.225 48.3998 214.463 49.1826L215.897 50.5774C216.287 50.1762 216.726 49.992 217.268 49.992V47.992ZM214.463 49.1829C213.676 49.9931 213.34 51.0704 213.34 52.28H215.34C215.34 51.4416 215.565 50.9189 215.897 50.5771L214.463 49.1829ZM213.34 52.28C213.34 53.4923 213.676 54.5714 214.445 55.4055L215.916 54.0505C215.564 53.6686 215.34 53.1157 215.34 52.28H213.34ZM214.463 55.4254C215.225 56.2082 216.179 56.616 217.268 56.616V54.616C216.726 54.616 216.287 54.4318 215.897 54.0306L214.463 55.4254ZM217.268 56.616C218.359 56.616 219.309 56.2072 220.059 55.4152L218.606 54.0408C218.235 54.4328 217.81 54.616 217.268 54.616V56.616ZM220.049 55.4254C220.848 54.6043 221.196 53.5226 221.196 52.304H219.196C219.196 53.1334 218.969 53.6677 218.615 54.0306L220.049 55.4254ZM229.813 58.352L229.339 59.2325L229.345 59.2355L229.813 58.352ZM227.341 55.952L226.472 56.4467L226.478 56.4567L227.341 55.952ZM227.365 48.68L228.229 49.1847L228.232 49.179L227.365 48.68ZM229.861 46.256L230.33 47.1395L229.861 46.256ZM236.965 46.256L236.497 47.1395L236.965 46.256ZM239.461 48.68L238.595 49.179L238.598 49.1847L239.461 48.68ZM239.437 55.952L238.576 55.4433L238.574 55.4473L239.437 55.952ZM236.917 58.352L236.454 57.4656L236.449 57.4685L236.917 58.352ZM235.357 54.776L234.64 54.0789L234.635 54.0841L234.63 54.0894L235.357 54.776ZM235.381 49.832L234.644 50.5077L234.649 50.5132L234.654 50.5186L235.381 49.832ZM231.421 49.832L232.149 50.5181L232.158 50.5077L231.421 49.832ZM231.397 54.776L230.65 55.4404L230.655 55.4461L230.66 55.4517L231.397 54.776ZM233.365 58.192C232.2 58.192 231.18 57.9447 230.282 57.4685L229.345 59.2355C230.559 59.8793 231.906 60.192 233.365 60.192V58.192ZM230.287 57.4715C229.412 57.0005 228.722 56.332 228.205 55.4473L226.478 56.4567C227.177 57.652 228.134 58.5835 229.339 59.2325L230.287 57.4715ZM228.21 55.4573C227.717 54.5911 227.453 53.5511 227.453 52.304H225.453C225.453 53.8409 225.781 55.2329 226.472 56.4467L228.21 55.4573ZM227.453 52.304C227.453 51.0797 227.722 50.0508 228.229 49.1847L226.502 48.1753C225.792 49.3892 225.453 50.7763 225.453 52.304H227.453ZM228.232 49.179C228.748 48.2827 229.443 47.6095 230.33 47.1395L229.393 45.3725C228.167 46.0225 227.199 46.9653 226.499 48.181L228.232 49.179ZM230.33 47.1395C231.228 46.6633 232.248 46.416 233.413 46.416V44.416C231.954 44.416 230.607 44.7287 229.393 45.3725L230.33 47.1395ZM233.413 46.416C234.578 46.416 235.599 46.6633 236.497 47.1395L237.434 45.3725C236.22 44.7287 234.872 44.416 233.413 44.416V46.416ZM236.497 47.1395C237.383 47.6095 238.079 48.2827 238.595 49.179L240.328 48.181C239.628 46.9653 238.659 46.0225 237.434 45.3725L236.497 47.1395ZM238.598 49.1847C239.104 50.0508 239.373 51.0797 239.373 52.304H241.373C241.373 50.7763 241.034 49.3892 240.325 48.1753L238.598 49.1847ZM239.373 52.304C239.373 53.5233 239.099 54.5595 238.576 55.4433L240.298 56.4607C241.024 55.2325 241.373 53.8367 241.373 52.304H239.373ZM238.574 55.4473C238.061 56.3243 237.36 56.9923 236.454 57.4657L237.38 59.2383C238.618 58.5917 239.597 57.6597 240.301 56.4567L238.574 55.4473ZM236.449 57.4685C235.551 57.9447 234.53 58.192 233.365 58.192V60.192C234.824 60.192 236.172 59.8793 237.386 59.2355L236.449 57.4685ZM233.365 56.64C234.428 56.64 235.354 56.2362 236.084 55.4626L234.63 54.0894C234.273 54.4678 233.871 54.64 233.365 54.64V56.64ZM236.074 55.4731C236.87 54.6548 237.197 53.5468 237.197 52.304H235.197C235.197 53.2052 234.965 53.7452 234.64 54.0789L236.074 55.4731ZM237.197 52.304C237.197 51.0685 236.882 49.9645 236.108 49.1454L234.654 50.5186C234.969 50.8515 235.197 51.3955 235.197 52.304H237.197ZM236.118 49.1563C235.4 48.3729 234.476 47.968 233.413 47.968V49.968C233.918 49.968 234.306 50.1391 234.644 50.5077L236.118 49.1563ZM233.413 47.968C232.341 47.968 231.407 48.3681 230.684 49.1563L232.158 50.5077C232.492 50.1439 232.886 49.968 233.413 49.968V47.968ZM230.694 49.146C229.93 49.9564 229.629 51.0667 229.629 52.304H231.629C231.629 51.3653 231.857 50.8276 232.149 50.518L230.694 49.146ZM229.629 52.304C229.629 53.5252 229.921 54.6206 230.65 55.4404L232.145 54.1116C231.849 53.7794 231.629 53.2268 231.629 52.304H229.629ZM230.66 55.4517C231.378 56.2351 232.302 56.64 233.365 56.64V54.64C232.86 54.64 232.472 54.4689 232.134 54.1003L230.66 55.4517ZM246.655 47.84H245.655V51.2039L247.492 48.3863L246.655 47.84ZM248.454 46.112L248.955 46.9779L248.962 46.9737L248.969 46.9695L248.454 46.112ZM250.854 45.464H251.854V44.464H250.854V45.464ZM250.854 49.808V50.808H251.854V49.808H250.854ZM247.423 50.48L248.067 51.2443L248.074 51.2385L248.081 51.2326L247.423 50.48ZM246.655 59V60H247.655V59H246.655ZM242.55 59H241.55V60H242.55V59ZM242.55 45.608V44.608H241.55V45.608H242.55ZM246.655 45.608H247.655V44.608H246.655V45.608ZM247.492 48.3863C247.891 47.7741 248.378 47.3108 248.955 46.9779L247.954 45.2461C247.091 45.7452 246.378 46.4339 245.817 47.2937L247.492 48.3863ZM248.969 46.9695C249.526 46.6353 250.147 46.464 250.854 46.464V44.464C249.802 44.464 248.823 44.7247 247.94 45.2545L248.969 46.9695ZM249.854 45.464V49.808H251.854V45.464H249.854ZM250.854 48.808H249.727V50.808H250.854V48.808ZM249.727 48.808C248.579 48.808 247.531 49.0562 246.764 49.7274L248.081 51.2326C248.338 51.0078 248.826 50.808 249.727 50.808V48.808ZM246.778 49.7157C245.929 50.4318 245.655 51.5717 245.655 52.784H247.655C247.655 51.7883 247.892 51.3922 248.067 51.2443L246.778 49.7157ZM245.655 52.784V59H247.655V52.784H245.655ZM246.655 58H242.55V60H246.655V58ZM243.55 59V45.608H241.55V59H243.55ZM242.55 46.608H246.655V44.608H242.55V46.608ZM245.655 45.608V47.84H247.655V45.608H245.655Z" fill="white" mask="url(#path-2-outside-1_1016_3049)"/>
</svg>
