<svg width="578" height="597" viewBox="0 0 578 597" fill="none" xmlns="http://www.w3.org/2000/svg">
<path d="M143.847 8.76517L465.162 94.8611C481.966 99.3637 491.938 116.636 487.436 133.441L390.933 493.594C386.43 510.398 369.157 520.371 352.353 515.868L31.039 429.772C14.2348 425.269 4.26247 407.997 8.76514 391.193L105.268 31.039C109.771 14.2349 127.043 4.26251 143.847 8.76517Z" stroke="#F0B70D"/>
<path d="M370.268 137.641L554.539 321.912C566.841 334.214 566.841 354.158 554.539 366.46L347.001 573.998C334.699 586.3 314.755 586.3 302.453 573.998L118.182 389.728C105.881 377.426 105.881 357.481 118.182 345.18L325.721 137.641C338.022 125.34 357.967 125.34 370.268 137.641Z" stroke="#F38160"/>
</svg>
