<svg xmlns="http://www.w3.org/2000/svg" width="21" height="18" viewBox="0 0 21 18" fill="none">
  <path d="M2.45 18V5.1L0.5 0.85L2.3 0L4.65 5.05H16.25L18.6 0L20.4 0.85L18.45 5.1V18H2.45ZM8.45 11H12.45C12.7333 11 12.9708 10.9042 13.1625 10.7125C13.3542 10.5208 13.45 10.2833 13.45 10C13.45 9.71667 13.3542 9.47917 13.1625 9.2875C12.9708 9.09583 12.7333 9 12.45 9H8.45C8.16667 9 7.92917 9.09583 7.7375 9.2875C7.54583 9.47917 7.45 9.71667 7.45 10C7.45 10.2833 7.54583 10.5208 7.7375 10.7125C7.92917 10.9042 8.16667 11 8.45 11ZM4.45 16H16.45V7.05H4.45V16Z" fill="#A5724C"/>
</svg>