<svg xmlns="http://www.w3.org/2000/svg" width="17" height="21" viewBox="0 0 17 21" fill="none">
  <path d="M8.5 10.9565C9.05 10.9565 9.52083 10.7607 9.9125 10.369C10.3042 9.97738 10.5 9.50654 10.5 8.95654C10.5 8.40654 10.3042 7.93571 9.9125 7.54404C9.52083 7.15238 9.05 6.95654 8.5 6.95654C7.95 6.95654 7.47917 7.15238 7.0875 7.54404C6.69583 7.93571 6.5 8.40654 6.5 8.95654C6.5 9.50654 6.69583 9.97738 7.0875 10.369C7.47917 10.7607 7.95 10.9565 8.5 10.9565ZM8.5 18.3065C10.5333 16.4399 12.0417 14.744 13.025 13.219C14.0083 11.694 14.5 10.3399 14.5 9.15654C14.5 7.33988 13.9208 5.85238 12.7625 4.69404C11.6042 3.53571 10.1833 2.95654 8.5 2.95654C6.81667 2.95654 5.39583 3.53571 4.2375 4.69404C3.07917 5.85238 2.5 7.33988 2.5 9.15654C2.5 10.3399 2.99167 11.694 3.975 13.219C4.95833 14.744 6.46667 16.4399 8.5 18.3065ZM8.5 20.9565C5.81667 18.6732 3.8125 16.5524 2.4875 14.594C1.1625 12.6357 0.5 10.8232 0.5 9.15654C0.5 6.65654 1.30417 4.66488 2.9125 3.18154C4.52083 1.69821 6.38333 0.956543 8.5 0.956543C10.6167 0.956543 12.4792 1.69821 14.0875 3.18154C15.6958 4.66488 16.5 6.65654 16.5 9.15654C16.5 10.8232 15.8375 12.6357 14.5125 14.594C13.1875 16.5524 11.1833 18.6732 8.5 20.9565Z" fill="#0071FF"/>
</svg>