<svg xmlns="http://www.w3.org/2000/svg" width="25" height="25" viewBox="0 0 25 25" fill="none">
  <path d="M8.5 9.5C8.78333 9.5 9.02083 9.40417 9.2125 9.2125C9.40417 9.02083 9.5 8.78333 9.5 8.5C9.5 8.21667 9.40417 7.97917 9.2125 7.7875C9.02083 7.59583 8.78333 7.5 8.5 7.5C8.21667 7.5 7.97917 7.59583 7.7875 7.7875C7.59583 7.97917 7.5 8.21667 7.5 8.5C7.5 8.78333 7.59583 9.02083 7.7875 9.2125C7.97917 9.40417 8.21667 9.5 8.5 9.5ZM8.5 13.5C8.78333 13.5 9.02083 13.4042 9.2125 13.2125C9.40417 13.0208 9.5 12.7833 9.5 12.5C9.5 12.2167 9.40417 11.9792 9.2125 11.7875C9.02083 11.5958 8.78333 11.5 8.5 11.5C8.21667 11.5 7.97917 11.5958 7.7875 11.7875C7.59583 11.9792 7.5 12.2167 7.5 12.5C7.5 12.7833 7.59583 13.0208 7.7875 13.2125C7.97917 13.4042 8.21667 13.5 8.5 13.5ZM8.5 17.5C8.78333 17.5 9.02083 17.4042 9.2125 17.2125C9.40417 17.0208 9.5 16.7833 9.5 16.5C9.5 16.2167 9.40417 15.9792 9.2125 15.7875C9.02083 15.5958 8.78333 15.5 8.5 15.5C8.21667 15.5 7.97917 15.5958 7.7875 15.7875C7.59583 15.9792 7.5 16.2167 7.5 16.5C7.5 16.7833 7.59583 17.0208 7.7875 17.2125C7.97917 17.4042 8.21667 17.5 8.5 17.5ZM5.5 21.5C4.95 21.5 4.47917 21.3042 4.0875 20.9125C3.69583 20.5208 3.5 20.05 3.5 19.5V5.5C3.5 4.95 3.69583 4.47917 4.0875 4.0875C4.47917 3.69583 4.95 3.5 5.5 3.5H16.5L21.5 8.5V19.5C21.5 20.05 21.3042 20.5208 20.9125 20.9125C20.5208 21.3042 20.05 21.5 19.5 21.5H5.5ZM5.5 19.5H19.5V9.5H15.5V5.5H5.5V19.5Z" fill="#A5724C"/>
</svg>