<svg xmlns="http://www.w3.org/2000/svg" width="16" height="16" viewBox="0 0 16 16" fill="none">
  <path d="M2.375 7.58154C1.85 7.58154 1.40625 7.40029 1.04375 7.03779C0.68125 6.67529 0.5 6.23154 0.5 5.70654C0.5 5.18154 0.68125 4.73779 1.04375 4.37529C1.40625 4.01279 1.85 3.83154 2.375 3.83154C2.9 3.83154 3.34375 4.01279 3.70625 4.37529C4.06875 4.73779 4.25 5.18154 4.25 5.70654C4.25 6.23154 4.06875 6.67529 3.70625 7.03779C3.34375 7.40029 2.9 7.58154 2.375 7.58154ZM5.75 4.58154C5.225 4.58154 4.78125 4.40029 4.41875 4.03779C4.05625 3.67529 3.875 3.23154 3.875 2.70654C3.875 2.18154 4.05625 1.73779 4.41875 1.37529C4.78125 1.01279 5.225 0.831543 5.75 0.831543C6.275 0.831543 6.71875 1.01279 7.08125 1.37529C7.44375 1.73779 7.625 2.18154 7.625 2.70654C7.625 3.23154 7.44375 3.67529 7.08125 4.03779C6.71875 4.40029 6.275 4.58154 5.75 4.58154ZM10.25 4.58154C9.725 4.58154 9.28125 4.40029 8.91875 4.03779C8.55625 3.67529 8.375 3.23154 8.375 2.70654C8.375 2.18154 8.55625 1.73779 8.91875 1.37529C9.28125 1.01279 9.725 0.831543 10.25 0.831543C10.775 0.831543 11.2188 1.01279 11.5813 1.37529C11.9438 1.73779 12.125 2.18154 12.125 2.70654C12.125 3.23154 11.9438 3.67529 11.5813 4.03779C11.2188 4.40029 10.775 4.58154 10.25 4.58154ZM13.625 7.58154C13.1 7.58154 12.6563 7.40029 12.2938 7.03779C11.9313 6.67529 11.75 6.23154 11.75 5.70654C11.75 5.18154 11.9313 4.73779 12.2938 4.37529C12.6563 4.01279 13.1 3.83154 13.625 3.83154C14.15 3.83154 14.5938 4.01279 14.9563 4.37529C15.3188 4.73779 15.5 5.18154 15.5 5.70654C15.5 6.23154 15.3188 6.67529 14.9563 7.03779C14.5938 7.40029 14.15 7.58154 13.625 7.58154ZM3.9875 15.0815C3.425 15.0815 2.95312 14.8659 2.57188 14.4347C2.19063 14.0034 2 13.494 2 12.9065C2 12.2565 2.22188 11.6878 2.66563 11.2003C3.10938 10.7128 3.55 10.2315 3.9875 9.75654C4.35 9.36904 4.6625 8.94717 4.925 8.49092C5.1875 8.03467 5.5 7.60654 5.8625 7.20654C6.1375 6.88154 6.45625 6.61279 6.81875 6.40029C7.18125 6.18779 7.575 6.08154 8 6.08154C8.425 6.08154 8.81875 6.18154 9.18125 6.38154C9.54375 6.58154 9.8625 6.84404 10.1375 7.16904C10.4875 7.56904 10.7969 8.00029 11.0656 8.46279C11.3344 8.92529 11.65 9.35654 12.0125 9.75654C12.45 10.2315 12.8906 10.7128 13.3344 11.2003C13.7781 11.6878 14 12.2565 14 12.9065C14 13.494 13.8094 14.0034 13.4281 14.4347C13.0469 14.8659 12.575 15.0815 12.0125 15.0815C11.3375 15.0815 10.6688 15.0253 10.0063 14.9128C9.34375 14.8003 8.675 14.744 8 14.744C7.325 14.744 6.65625 14.8003 5.99375 14.9128C5.33125 15.0253 4.6625 15.0815 3.9875 15.0815Z" fill="#6B4423"/>
</svg>