<svg xmlns="http://www.w3.org/2000/svg" width="23" height="16" viewBox="0 0 23 16" fill="none">
  <path d="M5.5 16C4.66667 16 3.95833 15.7083 3.375 15.125C2.79167 14.5417 2.5 13.8333 2.5 13H0.5V2C0.5 1.45 0.695833 0.979167 1.0875 0.5875C1.47917 0.195833 1.95 0 2.5 0H16.5V4H19.5L22.5 8V13H20.5C20.5 13.8333 20.2083 14.5417 19.625 15.125C19.0417 15.7083 18.3333 16 17.5 16C16.6667 16 15.9583 15.7083 15.375 15.125C14.7917 14.5417 14.5 13.8333 14.5 13H8.5C8.5 13.8333 8.20833 14.5417 7.625 15.125C7.04167 15.7083 6.33333 16 5.5 16ZM5.5 14C5.78333 14 6.02083 13.9042 6.2125 13.7125C6.40417 13.5208 6.5 13.2833 6.5 13C6.5 12.7167 6.40417 12.4792 6.2125 12.2875C6.02083 12.0958 5.78333 12 5.5 12C5.21667 12 4.97917 12.0958 4.7875 12.2875C4.59583 12.4792 4.5 12.7167 4.5 13C4.5 13.2833 4.59583 13.5208 4.7875 13.7125C4.97917 13.9042 5.21667 14 5.5 14ZM2.5 11H3.3C3.58333 10.7 3.90833 10.4583 4.275 10.275C4.64167 10.0917 5.05 10 5.5 10C5.95 10 6.35833 10.0917 6.725 10.275C7.09167 10.4583 7.41667 10.7 7.7 11H14.5V2H2.5V11ZM17.5 14C17.7833 14 18.0208 13.9042 18.2125 13.7125C18.4042 13.5208 18.5 13.2833 18.5 13C18.5 12.7167 18.4042 12.4792 18.2125 12.2875C18.0208 12.0958 17.7833 12 17.5 12C17.2167 12 16.9792 12.0958 16.7875 12.2875C16.5958 12.4792 16.5 12.7167 16.5 13C16.5 13.2833 16.5958 13.5208 16.7875 13.7125C16.9792 13.9042 17.2167 14 17.5 14ZM16.5 9H20.75L18.5 6H16.5V9Z" fill="#A5724C"/>
</svg>