<svg width="20" height="20" viewBox="0 0 20 20" fill="none" xmlns="http://www.w3.org/2000/svg">
<path id="Vector" fill-rule="evenodd" clip-rule="evenodd" d="M3.33333 0C3.1787 5.1889e-06 3.02712 0.043034 2.89555 0.124273C2.76398 0.205511 2.65761 0.321755 2.58833 0.46L0.0883333 5.46C0.0302545 5.57588 8.67989e-06 5.70371 0 5.83333V9.16667C0 9.38768 0.0877975 9.59964 0.244078 9.75592C0.400358 9.9122 0.61232 10 0.833333 10H1.66667V19.1667C1.66667 19.3877 1.75446 19.5996 1.91074 19.7559C2.06702 19.9122 2.27899 20 2.5 20H17.5C17.721 20 17.933 19.9122 18.0893 19.7559C18.2455 19.5996 18.3333 19.3877 18.3333 19.1667V10H19.1667C19.3877 10 19.5996 9.9122 19.7559 9.75592C19.9122 9.59964 20 9.38768 20 9.16667V5.83333C20 5.70371 19.9697 5.57588 19.9117 5.46L17.4117 0.46C17.3424 0.321755 17.236 0.205511 17.1044 0.124273C16.9729 0.043034 16.8213 5.1889e-06 16.6667 0H3.33333ZM18.3333 6.03V8.33333H15V6.66667H13.3333V8.33333H10.8333V6.66667H9.16667V8.33333H6.66667V6.66667H5V8.33333H1.66667V6.03L3.84833 1.66667H16.1517L18.3333 6.03ZM7.5 13.3333H9.16667V11.6667H7.5V13.3333ZM10.8333 13.3333H12.5V11.6667H10.8333V13.3333ZM9.16667 15.8333H7.5V14.1667H9.16667V15.8333ZM10.8333 15.8333H12.5V14.1667H10.8333V15.8333Z" fill="black"/>
</svg>
